<?xml version="1.0" encoding="iso-8859-1"?>
<!-- Generator: Adobe Illustrator 22.1.0, SVG Export Plug-In . SVG Version: 6.00 Build 0)  -->
<svg version="1.1" id="Layer_1" xmlns="http://www.w3.org/2000/svg" xmlns:xlink="http://www.w3.org/1999/xlink" x="0px" y="0px"
	 viewBox="0 0 32 32" style="enable-background:new 0 0 32 32;" xml:space="preserve">
<path d="M13.4,5.5c0.2,0.2,0.3,0.5,0.4,0.8v19.5c0,0.3-0.1,0.6-0.4,0.8c-0.2,0.2-0.5,0.3-0.8,0.3c-0.3,0-0.6-0.1-0.8-0.3l-6-6H1.2
	c-0.3,0-0.6-0.1-0.8-0.4S0,19.7,0,19.4v-6.8c0-0.3,0.1-0.6,0.4-0.8s0.5-0.3,0.8-0.4h4.7l6-6c0.2-0.2,0.5-0.3,0.8-0.3
	S13.2,5.3,13.4,5.5z"/>
</svg>
