<?xml version="1.0" encoding="iso-8859-1"?>
<!-- Generator: Adobe Illustrator 22.1.0, SVG Export Plug-In . SVG Version: 6.00 Build 0)  -->
<svg version="1.1" id="Layer_1" xmlns="http://www.w3.org/2000/svg" xmlns:xlink="http://www.w3.org/1999/xlink" x="0px" y="0px"
	 viewBox="0 0 32 32" style="enable-background:new 0 0 32 32;" xml:space="preserve">
<path d="M13.4,5.5c0.2,0.2,0.3,0.5,0.4,0.8v19.5c0,0.3-0.1,0.6-0.4,0.8c-0.2,0.2-0.5,0.3-0.8,0.3c-0.3,0-0.6-0.1-0.8-0.3l-6-6H1.2
	c-0.3,0-0.6-0.1-0.8-0.4S0,19.7,0,19.4v-6.8c0-0.3,0.1-0.6,0.4-0.8s0.5-0.3,0.8-0.4h4.7l6-6c0.2-0.2,0.5-0.3,0.8-0.3
	S13.2,5.3,13.4,5.5z M20.9,16c0-2.2-1.6-4.1-3.7-4.6c-0.5-0.1-1.1,0.2-1.2,0.8c-0.1,0.5,0.2,1.1,0.8,1.2c1.2,0.3,2.1,1.4,2.1,2.6
	s-0.9,2.4-2.1,2.6c-0.5,0.1-0.9,0.6-0.8,1.2c0.1,0.5,0.5,0.8,1,0.8c0.1,0,0.1,0,0.2,0C19.3,20.1,20.9,18.2,20.9,16z M25.8,16
	c0-4.1-2.8-7.8-6.5-8.6c-0.5-0.1-1.1,0.2-1.2,0.8c-0.1,0.5,0.2,1.1,0.8,1.2c2.9,0.6,5,3.4,5,6.7s-2.1,6-5,6.7
	c-0.5,0.1-0.9,0.7-0.8,1.2c0.1,0.5,0.5,0.8,1,0.8c0.1,0,0.1,0,0.2,0C23,23.8,25.8,20.1,25.8,16z M21.1,3.4c-0.5-0.1-1.1,0.2-1.2,0.8
	s0.2,1.1,0.8,1.2c4.6,1,8,5.5,8,10.6c0,5.1-3.4,9.6-8,10.6c-0.5,0.1-0.9,0.7-0.8,1.2c0.1,0.5,0.5,0.8,1,0.8c0.1,0,0.1,0,0.2,0
	c5.5-1.2,9.5-6.5,9.5-12.6C30.6,9.9,26.6,4.6,21.1,3.4z"/>
</svg>
